<?xml version="1.0" standalone="no"?>
<!DOCTYPE svg PUBLIC "-//W3C//DTD SVG 20010904//EN"
 "http://www.w3.org/TR/2001/REC-SVG-20010904/DTD/svg10.dtd">
<svg version="1.0" xmlns="http://www.w3.org/2000/svg"
 width="553.000000pt" height="553.000000pt" viewBox="0 0 553.000000 553.000000"
 preserveAspectRatio="xMidYMid meet">
<metadata>
Created by potrace 1.16, written by Peter Selinger 2001-2019
</metadata>
<g transform="translate(0.000000,553.000000) scale(0.100000,-0.100000)"
fill="#000000" stroke="none">
<path d="M0 2765 l0 -2765 2765 0 2765 0 0 2765 0 2765 -2765 0 -2765 0 0
-2765z m4488 2120 c111 -23 195 -67 271 -142 35 -35 60 -68 55 -72 -5 -4 -472
-327 -1039 -716 -566 -390 -1077 -741 -1135 -781 l-105 -72 -48 -124 c-26 -67
-47 -128 -47 -133 0 -13 240 -8 282 5 20 6 1123 761 2106 1442 62 43 115 78
118 78 2 0 4 -53 4 -119 l0 -119 -1051 -727 -1051 -728 -59 -121 c-32 -66 -59
-125 -59 -130 0 -5 63 -7 145 -4 l144 5 73 50 c40 28 472 325 960 662 488 336
890 611 893 611 3 0 5 -53 5 -118 l0 -119 -904 -624 -904 -624 -63 -128 c-34
-70 -59 -130 -56 -133 3 -3 69 -3 147 1 l141 8 814 558 c447 308 816 559 819
559 3 0 6 -54 6 -119 l0 -119 -759 -523 -758 -522 -64 -128 c-35 -71 -61 -130
-59 -132 3 -3 70 -2 150 2 l145 7 660 453 c363 249 665 456 672 458 10 4 13
-137 13 -704 0 -755 -1 -766 -49 -861 -36 -71 -110 -159 -169 -200 -75 -53
-188 -98 -278 -112 -47 -7 -597 -10 -1749 -8 l-1680 3 -67 23 c-132 45 -257
151 -317 271 -39 78 -51 142 -51 281 l0 120 555 0 555 0 0 70 0 70 -555 0
-555 0 0 1503 c0 1000 4 1517 11 1547 32 141 153 281 293 339 42 17 102 36
134 40 31 5 805 9 1720 10 1462 1 1672 -1 1740 -14z"/>
<path d="M2221 2704 c-85 -241 -225 -613 -312 -828 -88 -214 -159 -395 -159
-403 0 -11 156 -13 903 -12 835 2 914 5 615 24 -91 6 -108 10 -108 23 0 10 11
85 24 167 13 83 20 152 15 155 -4 3 -80 21 -169 40 -113 24 -160 38 -160 47 0
16 37 262 46 304 l5 26 -163 33 c-90 18 -166 36 -170 39 -4 4 3 82 16 175 16
116 19 169 12 171 -6 2 -72 16 -146 30 -171 33 -170 33 -170 54 0 10 18 98 40
197 22 98 39 182 37 187 -1 5 -72 -188 -156 -429z"/>
</g>
</svg>
